<svg width="92" height="92" viewBox="0 0 92 92" fill="none" xmlns="http://www.w3.org/2000/svg">
<rect width="70" height="70" transform="translate(11 11)" fill="white"/>
<path fill-rule="evenodd" clip-rule="evenodd" d="M45.9999 43.8789L79.3085 10.5703L81.4298 12.6916L48.1213 46.0002L81.4298 79.3085L79.3085 81.4298L45.9999 48.1215L12.6916 81.4298L10.5703 79.3085L43.8786 46.0002L10.5703 12.6922L12.6916 10.5708L45.9999 43.8789Z" fill="#1D2EFF"/>
<path d="M79.3085 10.5703L86.3795 3.49924C82.4743 -0.405998 76.1427 -0.405996 72.2374 3.49925L79.3085 10.5703ZM45.9999 43.8789L38.9289 50.95C42.8341 54.8552 49.1658 54.8552 53.071 50.9499L45.9999 43.8789ZM81.4298 12.6916L88.5009 19.7627C90.3762 17.8873 91.4298 15.3438 91.4298 12.6916C91.4298 10.0395 90.3762 7.49592 88.5009 5.62056L81.4298 12.6916ZM48.1213 46.0002L41.0502 38.9291C39.1748 40.8045 38.1212 43.348 38.1213 46.0002C38.1213 48.6524 39.1748 51.1959 41.0502 53.0713L48.1213 46.0002ZM81.4298 79.3085L88.5009 86.3795C90.3763 84.5042 91.4298 81.9606 91.4298 79.3084C91.4298 76.6563 90.3762 74.1127 88.5008 72.2374L81.4298 79.3085ZM79.3085 81.4298L72.2375 88.5009C76.1427 92.4061 82.4744 92.4061 86.3796 88.5009L79.3085 81.4298ZM45.9999 48.1215L53.071 41.0504C49.1657 37.1452 42.8341 37.1452 38.9289 41.0504L45.9999 48.1215ZM12.6916 81.4298L5.62056 88.5009C7.49592 90.3762 10.0395 91.4298 12.6916 91.4298C15.3438 91.4298 17.8873 90.3762 19.7627 88.5009L12.6916 81.4298ZM10.5703 79.3085L3.49924 72.2374C-0.405996 76.1427 -0.405998 82.4743 3.49924 86.3795L10.5703 79.3085ZM43.8786 46.0002L50.9497 53.0713C52.825 51.1959 53.8786 48.6523 53.8786 46.0002C53.8786 43.348 52.825 40.8045 50.9496 38.9291L43.8786 46.0002ZM10.5703 12.6922L3.49922 5.62112C1.62387 7.4965 0.570306 10.04 0.570316 12.6922C0.570327 15.3444 1.62391 17.8879 3.49928 19.7633L10.5703 12.6922ZM12.6916 10.5708L19.7627 3.49974C17.8873 1.62439 15.3438 0.570827 12.6916 0.570837C10.0394 0.570847 7.49589 1.62442 5.62053 3.4998L12.6916 10.5708ZM72.2374 3.49925L38.9289 36.8078L53.071 50.9499L86.3796 17.6414L72.2374 3.49925ZM88.5009 5.62056L86.3795 3.49924L72.2374 17.6414L74.3587 19.7627L88.5009 5.62056ZM55.1923 53.0713L88.5009 19.7627L74.3587 5.62056L41.0502 38.9291L55.1923 53.0713ZM88.5008 72.2374L55.1923 38.9291L41.0502 53.0713L74.3588 86.3796L88.5008 72.2374ZM86.3796 88.5009L88.5009 86.3795L74.3587 72.2374L72.2374 74.3588L86.3796 88.5009ZM38.9289 55.1926L72.2375 88.5009L86.3795 74.3587L53.071 41.0504L38.9289 55.1926ZM19.7627 88.5009L53.071 55.1926L38.9289 41.0504L5.62056 74.3587L19.7627 88.5009ZM3.49924 86.3795L5.62056 88.5009L19.7627 74.3587L17.6414 72.2374L3.49924 86.3795ZM36.8075 38.9291L3.49924 72.2374L17.6414 86.3796L50.9497 53.0713L36.8075 38.9291ZM3.49928 19.7633L36.8076 53.0713L50.9496 38.9291L17.6414 5.62107L3.49928 19.7633ZM5.62053 3.4998L3.49922 5.62112L17.6414 19.7632L19.7627 17.6419L5.62053 3.4998ZM53.071 36.8078L19.7627 3.49974L5.62059 17.6419L38.9289 50.95L53.071 36.8078Z" fill="#1D2EFF"/>
</svg>
